<svg width="87" height="27" viewBox="0 0 87 27" fill="none" xmlns="http://www.w3.org/2000/svg">
<path d="M14.0242 26H0.344219V0.799998H3.33222V25.64H14.0242V26ZM15.1281 14.012C15.1281 9.644 16.1841 6.332 18.2961 4.076C20.4321 1.796 23.1681 0.655998 26.5041 0.655998C29.8401 0.655998 32.4921 1.64 34.4601 3.608C36.4521 5.576 37.4481 8.72 37.4481 13.04C37.4481 17.36 36.3921 20.624 34.2801 22.832C32.1681 25.04 29.3481 26.144 25.8201 26.144C22.7721 26.144 20.2761 25.268 18.3321 23.516C17.3241 22.604 16.5321 21.344 15.9561 19.736C15.4041 18.104 15.1281 16.196 15.1281 14.012ZM26.3961 1.016C23.9721 1.016 21.9801 2.096 20.4201 4.256C18.8841 6.416 18.1161 9.584 18.1161 13.76C18.1161 17.936 18.8481 20.984 20.3121 22.904C21.7761 24.824 23.7201 25.784 26.1441 25.784C28.5921 25.784 30.5841 24.704 32.1201 22.544C33.6801 20.36 34.4601 17.204 34.4601 13.076C34.4601 8.924 33.7161 5.876 32.2281 3.932C30.7641 1.988 28.8201 1.016 26.3961 1.016ZM53.2507 26.144C48.7627 26.144 45.4387 24.872 43.2787 22.328C42.5107 21.416 41.8867 20.204 41.4067 18.692C40.9267 17.18 40.6867 15.344 40.6867 13.184C40.6867 11.024 41.0347 9.092 41.7307 7.388C42.4507 5.66 43.4227 4.328 44.6467 3.392C47.0227 1.64 49.8907 0.763999 53.2507 0.763999C54.3307 0.763999 55.3867 0.847999 56.4187 1.016C57.4507 1.16 58.2187 1.316 58.7227 1.484L59.4787 1.736L59.3707 2.096C57.4987 1.448 55.4587 1.124 53.2507 1.124C50.7067 1.124 48.5827 1.952 46.8787 3.608C45.5827 4.832 44.6707 6.632 44.1427 9.008C43.8307 10.352 43.6747 11.996 43.6747 13.94C43.6747 15.884 43.9507 17.684 44.5027 19.34C45.0547 20.972 45.6787 22.184 46.3747 22.976C47.0947 23.768 47.9587 24.404 48.9667 24.884C49.9747 25.34 50.7787 25.604 51.3787 25.676C51.9787 25.748 52.6867 25.784 53.5027 25.784C54.3427 25.784 55.4587 25.688 56.8507 25.496V18.08H52.4947V17.72H61.3867V18.08H59.8387V25.172C58.0147 25.82 55.8187 26.144 53.2507 26.144ZM64.0656 14.012C64.0656 9.644 65.1216 6.332 67.2336 4.076C69.3696 1.796 72.1056 0.655998 75.4416 0.655998C78.7776 0.655998 81.4296 1.64 83.3976 3.608C85.3896 5.576 86.3856 8.72 86.3856 13.04C86.3856 17.36 85.3296 20.624 83.2176 22.832C81.1056 25.04 78.2856 26.144 74.7576 26.144C71.7096 26.144 69.2136 25.268 67.2696 23.516C66.2616 22.604 65.4696 21.344 64.8936 19.736C64.3416 18.104 64.0656 16.196 64.0656 14.012ZM75.3336 1.016C72.9096 1.016 70.9176 2.096 69.3576 4.256C67.8216 6.416 67.0536 9.584 67.0536 13.76C67.0536 17.936 67.7856 20.984 69.2496 22.904C70.7136 24.824 72.6576 25.784 75.0816 25.784C77.5296 25.784 79.5216 24.704 81.0576 22.544C82.6176 20.36 83.3976 17.204 83.3976 13.076C83.3976 8.924 82.6536 5.876 81.1656 3.932C79.7016 1.988 77.7576 1.016 75.3336 1.016Z" fill="black"/>
</svg>
